<?xml version="1.0" encoding="utf-8"?>
<!-- Generator: Adobe Illustrator 23.0.3, SVG Export Plug-In . SVG Version: 6.00 Build 0)  -->
<svg version="1.1" id="Layer_1" xmlns="http://www.w3.org/2000/svg" xmlns:xlink="http://www.w3.org/1999/xlink" x="0px" y="0px"
	 viewBox="0 0 135.3 87.6" style="enable-background:new 0 0 135.3 87.6;" xml:space="preserve">
<style type="text/css">
	.st0{opacity:0.5;}
	.st1{fill:#0069AA;}
	.st2{fill:#8DBB3F;}
	.st3{fill:#D72F3D;}
	.st4{enable-background:new    ;}
	.st5{fill:#231F20;}
	.st6{font-family:'OpenSans';}
	.st7{font-size:4.9323px;}
</style>
<g>
	<g>
		<g class="st0">
			<g>
				<path d="M119.8,54.2L130.6,38h-12.4l-4.9,8.3l-0.6-0.9l-4.6-7.1l0,0l-0.2-0.3l-1.3-2l-5.1-8.2c4.2-1.8,7.3-4.9,8.4-9.5
					c0.3-1.1,0.4-2.3,0.4-3.6v-0.1c0-1.5-0.2-2.9-0.5-4.2c-0.6-2.3-1.7-4.1-3.3-5.7c-2.8-2.8-7.3-4.5-13.8-4.5H72.4v10.3v7.9v19.7
					v0.3v4.1h11.8v-4.1v-0.3v-8.2h5.2l5,7.2l0,0l0.7,1l0.2,0.3h0.1l3.5,5l7.6,11L95.3,70.9h12.4l5.3-8.7l5.2,8.7h12.7L119.8,54.2z
					 M92.1,20.6h-7.8v-2.3v-7.9v-0.1H92c0.6,0,1.1,0,1.5,0.1c3,0.4,4.8,2.1,4.8,5v0.1c0,1.1-0.3,2-0.9,2.8
					C96.5,19.8,94.6,20.6,92.1,20.6z"/>
			</g>
		</g>
		<g>
			<rect x="71.3" y="37.8" class="st1" width="11.8" height="4.4"/>
		</g>
		<g>
			<polygon class="st1" points="129.4,37.8 117,37.8 112,46.1 111.5,45.2 106.6,37.8 94,37.8 97.8,43.1 105.3,54.1 94.2,70.7 
				106.6,70.7 111.9,62 117.1,70.7 129.7,70.7 118.6,54 			"/>
		</g>
		<g>
			<polygon class="st2" points="106.2,37.3 93.6,37.3 94,37.8 106.6,37.8 			"/>
		</g>
		<g>
			<path class="st3" d="M83.1,10.1h7.8c0.6,0,1.1,0,1.5,0.1h16.1c-0.6-2.2-1.7-4.1-3.3-5.7C102.4,1.7,97.9,0,91.4,0H71.3v10.2
				L83.1,10.1L83.1,10.1z"/>
		</g>
		<g>
			<rect x="71.3" y="37.8" class="st2" width="11.8" height="0.3"/>
		</g>
		<g>
			<polygon class="st2" points="93.9,37.8 94.1,38.1 106.8,38.1 106.7,37.8 			"/>
		</g>
		<g>
			<path class="st2" d="M105.4,35.8l-5.1-8.2c4.2-1.8,7.3-5,8.4-9.5c0.3-1.1,0.4-2.3,0.4-3.5v-0.1c0-1.5-0.1-2.9-0.5-4.2H92.4
				c3,0.4,4.8,2.1,4.8,5v0.1c0,1.1-0.3,2-0.8,2.8c-1,1.4-2.9,2.3-5.5,2.3h-7.8v-2.3v-7.9H71.3v7.9v19.7h11.8v-8.2h5.2l5,7.2l0,0
				l0.7,1h12.7L105.4,35.8z"/>
		</g>
		<path class="st2" d="M57.8,48.8L57.8,48.8c-0.2,0-0.3,0.1-0.4,0.2C57.5,48.9,57.6,48.8,57.8,48.8z"/>
		<path class="st3" d="M37.2,0.1C26.7,0.1,17.8,4,11.3,10.2H64C57.7,4.2,49.9,0.1,37.2,0.1z"/>
		<path class="st2" d="M0.6,37.8c0,0.1,0,0.2,0,0.3h16.2c0-0.1,0-0.2,0-0.3H0.6z"/>
		<path class="st2" d="M16.7,36.5v-0.2c0-7.5,3.3-14.2,8.7-18.1c3.2-2.4,7.2-3.8,11.7-3.8c4.7,0,8.8,1.4,12.6,3.8
			c1.8,1.2,3.6,2.6,5.4,4.2l3.6-4.2l6.2-7.2c-0.3-0.2-0.5-0.5-0.8-0.7H11.3c-2.4,2.3-4.4,5-6.1,7.9c-3,5.4-4.7,11.6-4.7,18.3v0.2
			c0,0.4,0,0.8,0,1.2h16.2C16.7,37.4,16.7,36.9,16.7,36.5z"/>
		<path class="st1" d="M55.5,50.3c-1.8,1.7-3.6,3.1-5.4,4.3c-3.7,2.5-7.7,3.9-13.1,3.9c-4.6,0-8.6-1.5-11.9-3.9
			c-4.9-3.7-8-9.7-8.4-16.4H0.6c0.2,6,1.8,11.5,4.5,16.4c6,10.9,17.5,18.2,31.5,18.2c13.5,0,21.6-4.8,28.8-12.6l-5.6-5.6L55.5,50.3z
			"/>
		<g class="st4">
			<path class="st5" d="M2.5,81.2c0.5,0,0.9,0.2,1.2,0.5c0.3,0.4,0.4,0.9,0.4,1.5S4,84.4,3.7,84.8S3,85.3,2.5,85.3
				c-0.3,0-0.5,0-0.7-0.1c-0.2-0.1-0.4-0.2-0.5-0.4h0l-0.1,0.5H0.6v-5.6h0.6V81c0,0.3,0,0.6,0,0.8h0C1.5,81.4,1.9,81.2,2.5,81.2z
				 M2.4,81.7c-0.4,0-0.7,0.1-0.9,0.4c-0.2,0.2-0.3,0.6-0.3,1.2s0.1,1,0.3,1.2c0.2,0.2,0.5,0.4,0.9,0.4c0.4,0,0.6-0.1,0.8-0.4
				s0.3-0.7,0.3-1.2c0-0.5-0.1-0.9-0.3-1.2S2.8,81.7,2.4,81.7z"/>
		</g>
		<g class="st4">
			<path class="st5" d="M5.3,81.3H6l0.9,2.3C7,84,7.1,84.4,7.2,84.6h0c0-0.1,0.1-0.3,0.2-0.6c0.1-0.3,0.4-1.2,1-2.7H9l-1.7,4.5
				c-0.2,0.4-0.4,0.8-0.6,0.9S6.2,87,5.9,87c-0.2,0-0.4,0-0.5-0.1v-0.5c0.1,0,0.3,0,0.4,0c0.4,0,0.7-0.2,0.9-0.7l0.2-0.6L5.3,81.3z"
				/>
		</g>
		<text transform="matrix(1 0 0 1 11.8 85.2328)" class="st5 st6 st7"> </text>
		<g class="st4">
			<path class="st5" d="M20.4,85.2h-0.7v-2.9h-3.2v2.9h-0.7v-6.2h0.7v2.6h3.2v-2.6h0.7V85.2z"/>
			<path class="st5" d="M27.7,79.6c-0.7,0-1.2,0.2-1.6,0.7c-0.4,0.5-0.6,1.1-0.6,1.9c0,0.8,0.2,1.4,0.6,1.9c0.4,0.4,0.9,0.7,1.6,0.7
				c0.4,0,0.9-0.1,1.5-0.2v0.6c-0.4,0.2-1,0.2-1.6,0.2c-0.9,0-1.6-0.3-2.1-0.8c-0.5-0.5-0.7-1.3-0.7-2.3c0-0.6,0.1-1.2,0.4-1.7
				c0.2-0.5,0.6-0.8,1-1.1c0.4-0.3,1-0.4,1.6-0.4c0.6,0,1.2,0.1,1.7,0.4L29.1,80C28.7,79.7,28.2,79.6,27.7,79.6z"/>
			<path class="st5" d="M34.3,85.2h-0.7v-6.2H37v0.6h-2.7V82h2.6v0.6h-2.6V85.2z"/>
			<path class="st5" d="M48.9,79.6c-0.7,0-1.2,0.2-1.6,0.7c-0.4,0.5-0.6,1.1-0.6,1.9c0,0.8,0.2,1.4,0.6,1.9c0.4,0.4,0.9,0.7,1.6,0.7
				c0.4,0,0.9-0.1,1.5-0.2v0.6c-0.4,0.2-1,0.2-1.6,0.2c-0.9,0-1.6-0.3-2.1-0.8c-0.5-0.5-0.7-1.3-0.7-2.3c0-0.6,0.1-1.2,0.4-1.7
				c0.2-0.5,0.6-0.8,1-1.1c0.4-0.3,1-0.4,1.6-0.4c0.6,0,1.2,0.1,1.7,0.4L50.3,80C49.8,79.7,49.3,79.6,48.9,79.6z"/>
			<path class="st5" d="M60,82.1c0,1-0.2,1.8-0.7,2.3c-0.5,0.6-1.2,0.8-2.1,0.8c-0.9,0-1.6-0.3-2.1-0.8s-0.7-1.3-0.7-2.3
				c0-1,0.2-1.8,0.7-2.3s1.2-0.8,2.1-0.8c0.9,0,1.6,0.3,2.1,0.8C59.8,80.4,60,81.2,60,82.1z M55.1,82.1c0,0.8,0.2,1.5,0.5,1.9
				c0.4,0.4,0.9,0.6,1.5,0.6c0.7,0,1.2-0.2,1.5-0.6c0.3-0.4,0.5-1.1,0.5-1.9c0-0.8-0.2-1.5-0.5-1.9c-0.3-0.4-0.9-0.6-1.5-0.6
				c-0.7,0-1.2,0.2-1.6,0.6C55.3,80.7,55.1,81.3,55.1,82.1z"/>
			<path class="st5" d="M67.1,85.2L65,79.8h0c0,0.4,0.1,0.9,0.1,1.5v3.9h-0.7v-6.2h1.1l2,5.1h0l2-5.1h1.1v6.2h-0.7v-4
				c0-0.5,0-1,0.1-1.5h0l-2.1,5.5H67.1z"/>
			<path class="st5" d="M79.1,80.9c0,0.6-0.2,1.1-0.6,1.4s-1,0.5-1.8,0.5h-0.7v2.4h-0.7v-6.2h1.6C78.3,79.1,79.1,79.7,79.1,80.9z
				 M75.9,82.2h0.6c0.6,0,1.1-0.1,1.4-0.3c0.3-0.2,0.4-0.5,0.4-1c0-0.4-0.1-0.7-0.4-0.9c-0.3-0.2-0.7-0.3-1.2-0.3h-0.8V82.2z"/>
			<path class="st5" d="M83.4,85.2v-6.2h0.7v5.5h2.7v0.6H83.4z"/>
			<path class="st5" d="M90.9,85.2v-6.2h0.7v6.2H90.9z"/>
			<path class="st5" d="M100.1,85.2l-0.8-2h-2.5l-0.8,2h-0.7l2.4-6.2h0.6l2.4,6.2H100.1z M99.1,82.6l-0.7-1.9
				c-0.1-0.2-0.2-0.5-0.3-0.9c-0.1,0.3-0.2,0.6-0.3,0.9l-0.7,1.9H99.1z"/>
			<path class="st5" d="M109.5,85.2h-0.8l-3.4-5.2h0c0,0.6,0.1,1.2,0.1,1.7v3.5h-0.7v-6.2h0.8l3.4,5.2h0c0-0.1,0-0.3,0-0.7
				c0-0.4,0-0.7,0-0.9v-3.5h0.7V85.2z"/>
			<path class="st5" d="M116.9,79.6c-0.7,0-1.2,0.2-1.6,0.7c-0.4,0.5-0.6,1.1-0.6,1.9c0,0.8,0.2,1.4,0.6,1.9
				c0.4,0.4,0.9,0.7,1.6,0.7c0.4,0,0.9-0.1,1.5-0.2v0.6c-0.4,0.2-1,0.2-1.6,0.2c-0.9,0-1.6-0.3-2.1-0.8c-0.5-0.5-0.7-1.3-0.7-2.3
				c0-0.6,0.1-1.2,0.4-1.7c0.2-0.5,0.6-0.8,1-1.1c0.4-0.3,1-0.4,1.6-0.4c0.6,0,1.2,0.1,1.7,0.4l-0.3,0.6
				C117.8,79.7,117.3,79.6,116.9,79.6z"/>
			<path class="st5" d="M126.1,85.2h-3.4v-6.2h3.4v0.6h-2.7v2h2.6v0.6h-2.6v2.3h2.7V85.2z"/>
		</g>
	</g>
</g>
</svg>
